<svg xmlns="http://www.w3.org/2000/svg" width="81.908" height="67.038" viewBox="0 0 81.908 67.038">
    <path id="prefix__cap" d="M81.125 15.231l-25.9-9.875a1.217 1.217 0 1 0-.867 2.273l22.92 8.738-15.866 6.05-19.956-9.035a1.217 1.217 0 0 0-1 2.217l17.756 8.039-17.258 6.578L4.631 16.367 40.954 2.519l8.951 3.413a1.217 1.217 0 1 0 .867-2.273L41.388.08a1.217 1.217 0 0 0-.867 0L.783 15.231A1.217 1.217 0 0 0 0 16.367v5.555a1.217 1.217 0 0 0 .783 1.138l12.409 4.73v4.216a1.216 1.216 0 1 0 2.433 0v-3.288l24.9 9.492a1.216 1.216 0 0 0 .867 0l18.766-7.155v19.253a41.216 41.216 0 0 1-44.529-3.944v-9.492a1.216 1.216 0 1 0-2.433 0v10.08a1.216 1.216 0 0 0 .456.949 43.642 43.642 0 0 0 46.506 5.132v4.924a4.622 4.622 0 1 0 2.433 0v-6.208a43.357 43.357 0 0 0 5.67-3.849 1.216 1.216 0 0 0 .456-.949V27.79l12.408-4.731a1.216 1.216 0 0 0 .783-1.137v-5.555a1.217 1.217 0 0 0-.783-1.136zM63.56 62.416a2.189 2.189 0 1 1-2.19-2.19 2.192 2.192 0 0 1 2.19 2.19zM2.433 18.133l37.3 14.223v2.951l-37.3-14.223zm39.738 17.174v-2.951L60.154 25.5v2.951zm24.113 11.055a40.75 40.75 0 0 1-3.7 2.561v-18.8l3.7-1.41zm-3.7-18.839v-2.951l16.889-6.439v2.951zm0 0" style="fill:#7ba4d3"/>
</svg>
