<svg xmlns="http://www.w3.org/2000/svg" id="prefix__desktop" width="71.972" height="68.144" viewBox="0 0 71.972 68.144">
    <defs>
        <style>
            .prefix__cls-1{fill:#79a6d3}
        </style>
    </defs>
    <g id="prefix__Groupe_12" data-name="Groupe 12">
        <g id="prefix__Groupe_11" data-name="Groupe 11">
            <path id="prefix__Tracé_18" d="M66.229 12.5H5.742A5.749 5.749 0 0 0 0 18.242v45.94a5.749 5.749 0 0 0 5.742 5.742h22.2v8.422h-8.035a1.148 1.148 0 1 0 0 2.3h32.158a1.148 1.148 0 1 0 0-2.3h-8.04v-8.422h22.2a5.749 5.749 0 0 0 5.742-5.742v-45.94a5.749 5.749 0 0 0-5.738-5.742zm-24.5 65.847H30.243v-8.423h11.485zm27.946-14.165a3.449 3.449 0 0 1-3.445 3.445H5.742A3.449 3.449 0 0 1 2.3 64.182v-3.446h67.375zm0-5.742H2.3v-40.2a3.449 3.449 0 0 1 3.442-3.44h60.487a3.449 3.449 0 0 1 3.445 3.445z" class="prefix__cls-1" data-name="Tracé 18" transform="translate(0 -12.5)"/>
            <path id="prefix__Tracé_19" d="M91.635 42.5H31.148A1.149 1.149 0 0 0 30 43.648V80.4a1.149 1.149 0 0 0 1.148 1.148h49.768a1.148 1.148 0 0 0 0-2.3H32.3V44.8h58.19v34.452h-4.98a1.148 1.148 0 0 0 0 2.3h6.125a1.149 1.149 0 0 0 1.149-1.152V43.648a1.149 1.149 0 0 0-1.149-1.148z" class="prefix__cls-1" data-name="Tracé 19" transform="translate(-25.406 -37.906)"/>
        </g>
    </g>
</svg>
