<svg xmlns="http://www.w3.org/2000/svg" width="81.614" height="52.225" viewBox="0 0 81.614 52.225">
    <defs>
        <style>
            .prefix__cls-1{fill:#7aa5d3}
        </style>
    </defs>
    <g id="prefix__group" transform="translate(0 -92.184)">
        <g id="prefix__Groupe_216" data-name="Groupe 216" transform="translate(23.001 92.184)">
            <g id="prefix__Groupe_215" data-name="Groupe 215">
                <path id="prefix__Tracé_156" d="M176.16 121.605l-6.947-3.088a1.361 1.361 0 01-.808-1.243v-1.908a10.124 10.124 0 003.834-7.932v-2.684a2.478 2.478 0 001.278-2.165v-.261a10.152 10.152 0 00-10.14-10.14h-2.556a10.152 10.152 0 00-10.14 10.14v2.365a2.507 2.507 0 00.954 2.009 2.332 2.332 0 00.324.21v.528a10.124 10.124 0 003.833 7.931v1.908a1.361 1.361 0 01-.808 1.243l-6.947 3.088a6.312 6.312 0 00-3.745 5.763v15.845a1.2 1.2 0 102.391 0v-15.846a3.9 3.9 0 01.024-.411l3.2 3.2a2.621 2.621 0 01.773 1.865v11.19a1.2 1.2 0 102.391 0v-11.19a5 5 0 00-1.473-3.556l-3.816-3.816a3.906 3.906 0 011.226-.861l6.83-3.036 5.065 5.065v17.394a1.2 1.2 0 002.391 0V125.82l5.065-5.065 6.83 3.035a3.9 3.9 0 011.226.861l-3.816 3.816a5 5 0 00-1.473 3.556v11.19a1.2 1.2 0 102.391 0v-11.19a2.621 2.621 0 01.773-1.865l3.2-3.2a3.908 3.908 0 01.024.411v15.845a1.2 1.2 0 102.391 0v-15.846a6.313 6.313 0 00-3.745-5.763zm-14.06 2.029l-4.444-4.444a3.745 3.745 0 00.529-1.915v-.486a10.131 10.131 0 007.831 0v.486a3.744 3.744 0 00.529 1.915zm0-8.449a7.758 7.758 0 01-7.749-7.749v-.536a7.068 7.068 0 002.171-1.409 1.2 1.2 0 00-1.622-1.757 4.294 4.294 0 01-1.775 1.06.193.193 0 01-.032.006.243.243 0 01-.02-.108v-2.365a7.758 7.758 0 017.749-7.749h2.556a7.758 7.758 0 017.749 7.749v.261a.077.077 0 01-.054.078c-7.159 1.414-10.75-1.251-11.961-2.462a1.2 1.2 0 00-1.691 1.691c3.712 3.712 9.13 3.779 12.428 3.383v2.16a7.758 7.758 0 01-7.749 7.746z" class="prefix__cls-1" data-name="Tracé 156" transform="translate(-144.292 -92.184)"/>
            </g>
        </g>
        <g id="prefix__Groupe_218" data-name="Groupe 218" transform="translate(0 98.573)">
            <g id="prefix__Groupe_217" data-name="Groupe 217">
                <path id="prefix__Tracé_157" d="M21.558 148.794v-2.556a8.861 8.861 0 00-4.063-7.444 5.029 5.029 0 10-9.6 0 8.86 8.86 0 00-4.063 7.444v2.556a8.858 8.858 0 003.833 7.292v2.629a1.353 1.353 0 01-.752 1.217L2.78 162A5 5 0 000 166.5v10.409a1.2 1.2 0 002.391 0v-9.892l1.948 1.948a2.621 2.621 0 01.773 1.865v6.079a1.2 1.2 0 002.391 0v-6.079a5 5 0 00-1.473-3.556l-2.711-2.714-.04-.037a2.666 2.666 0 01.571-.386l4.135-2.067a3.808 3.808 0 00.593-.37l2.923 2.923v12.283a1.2 1.2 0 002.391 0v-12.283l2.923-2.923a3.793 3.793 0 00.593.37l1.14.57a1.2 1.2 0 101.069-2.138l-1.14-.57a1.353 1.353 0 01-.752-1.216v-2.629a8.858 8.858 0 003.833-7.293zM12.7 134.656a2.641 2.641 0 012.638 2.638 2.679 2.679 0 01-.042.471 8.861 8.861 0 00-5.188 0 2.622 2.622 0 012.592-3.108zm0 5.111a6.479 6.479 0 016.471 6.471v.433a7.505 7.505 0 01-8.07-2.428 1.2 1.2 0 00-1.8-.128 7.821 7.821 0 01-3.066 1.957 6.477 6.477 0 016.465-6.305zm0 22.669l-2.763-2.763a3.786 3.786 0 00.125-.959v-1.459a8.878 8.878 0 005.276 0v1.459a3.785 3.785 0 00.125.959zm0-7.172a6.479 6.479 0 01-6.471-6.471v-.248a9.586 9.586 0 003.842-1.914 10.786 10.786 0 002.217 1.614 9.509 9.509 0 004.569 1.179 10.017 10.017 0 002.3-.276 6.479 6.479 0 01-6.457 6.117z" class="prefix__cls-1" data-name="Tracé 157" transform="translate(0 -132.265)"/>
            </g>
        </g>
        <g id="prefix__Groupe_220" data-name="Groupe 220" transform="translate(57.501 101.129)">
            <g id="prefix__Groupe_219" data-name="Groupe 219">
                <path id="prefix__Tracé_158" d="M382.06 172.92l-6.691-3.345a1.353 1.353 0 01-.752-1.216v-1.694a7.567 7.567 0 002.556-5.671v-1.361h.082a1.2 1.2 0 001.2-1.2v-2.556a7.593 7.593 0 00-7.585-7.585h-2.556a7.593 7.593 0 00-7.585 7.585v2.556a1.2 1.2 0 001.2 1.2h.082v1.362a7.567 7.567 0 002.556 5.671v1.694a1.352 1.352 0 01-.752 1.216 1.2 1.2 0 101.069 2.139 3.809 3.809 0 00.593-.37l2.923 2.923v16.116a1.2 1.2 0 002.391 0v-16.117l2.923-2.923a3.79 3.79 0 00.593.37l6.474 3.237-1.964 1.964a5 5 0 00-1.473 3.556v9.912a1.2 1.2 0 002.391 0v-9.913a2.621 2.621 0 01.773-1.865l1.86-1.86a2.663 2.663 0 01.087.673v12.964a1.2 1.2 0 102.391 0v-12.964a5 5 0 00-2.786-4.498zM363.117 157v-1.114a5.2 5.2 0 015.193-5.193h2.556a5.2 5.2 0 015.193 5.193v1.328a18.285 18.285 0 01-8.364-2.323 1.2 1.2 0 00-1.509.149 7.83 7.83 0 01-3.069 1.96zm6.471 15.084l-2.763-2.763a3.787 3.787 0 00.125-.959v-.262a7.578 7.578 0 005.276 0v.255a3.782 3.782 0 00.125.959zm0-5.894a5.2 5.2 0 01-5.193-5.194v-1.927a10.118 10.118 0 002.806-1.712 21.239 21.239 0 007.581 2.155v1.484a5.2 5.2 0 01-5.194 5.191z" class="prefix__cls-1" data-name="Tracé 158" transform="translate(-360.726 -148.298)"/>
            </g>
        </g>
    </g>
</svg>
