<svg xmlns="http://www.w3.org/2000/svg" id="question" width="46" height="46" viewBox="0 0 46 46">
    <defs>
        <style>
            .cls-1{fill:#fff}
        </style>
    </defs>
    <path id="Tracé_40" d="M46 31.131A14.9 14.9 0 0 0 35.111 16.8a17.564 17.564 0 1 0-32.676 9.69l-2.37 8.574 8.572-2.371a17.5 17.5 0 0 0 8.163 2.418 14.874 14.874 0 0 0 21.9 8.822l7.238 2-2-7.238A14.816 14.816 0 0 0 46 31.131zM9.062 29.779L3.93 31.2l1.42-5.132-.324-.506A14.864 14.864 0 1 1 9.568 30.1zM42.07 42.07l-3.808-1.054-.509.331a12.178 12.178 0 0 1-18.164-6.336 17.6 17.6 0 0 0 15.423-15.422 12.179 12.179 0 0 1 6.335 18.164l-.331.509zm0 0" class="cls-1" data-name="Tracé 40"/>
    <path id="Tracé_41" d="M180.5 271h2.7v2.7h-2.7zm0 0" class="cls-1" data-name="Tracé 41" transform="translate(-164.283 -246.652)"/>
    <path id="Tracé_42" d="M143.586 95.391a2.668 2.668 0 0 1-.877 1.99l-3.166 2.9v3.289h2.7v-2.1l2.29-2.1a5.391 5.391 0 1 0-9.028-3.978h2.7a2.7 2.7 0 0 1 5.391 0zm0 0" class="cls-1" data-name="Tracé 42" transform="translate(-123.326 -81.914)"/>
</svg>
