<svg xmlns="http://www.w3.org/2000/svg" width="95.332" height="79.615" viewBox="0 0 95.332 79.615">
    <defs>
        <style>
            .prefix__cls-1{fill:#feeee2}
        </style>
    </defs>
    <g id="prefix__quote-2" transform="translate(0 -7.858)">
        <g id="prefix__Groupe_65" data-name="Groupe 65">
            <path id="prefix__Tracé_36" d="M30.512 43.939a25.26 25.26 0 00-6.98-1.019 21.935 21.935 0 00-8.752 1.793c2.2-8.054 7.485-21.951 18.013-23.516a2.5 2.5 0 002.04-1.8l2.3-8.23a2.5 2.5 0 00-2.068-3.15 17.477 17.477 0 00-2.354-.16c-12.637 0-25.152 13.19-30.433 32.076-3.1 11.08-4.009 27.738 3.627 38.223 4.273 5.867 10.507 9 18.529 9.313h.1a22.179 22.179 0 005.979-43.533z" class="prefix__cls-1" data-name="Tracé 36"/>
            <path id="prefix__Tracé_37" d="M92.471 54.413a22.231 22.231 0 00-13.334-10.474 25.258 25.258 0 00-6.979-1.019 21.94 21.94 0 00-8.753 1.793c2.2-8.054 7.485-21.951 18.014-23.516a2.5 2.5 0 002.04-1.8l2.3-8.23a2.5 2.5 0 00-2.068-3.15 17.455 17.455 0 00-2.354-.16C68.7 7.858 56.186 21.048 50.9 39.934c-3.1 11.08-4.008 27.738 3.629 38.225 4.272 5.866 10.507 9 18.528 9.312h.1a22.179 22.179 0 0019.311-33.06z" class="prefix__cls-1" data-name="Tracé 37"/>
        </g>
    </g>
</svg>
