<svg xmlns="http://www.w3.org/2000/svg" id="prefix__school" width="67.475" height="67.475" viewBox="0 0 67.475 67.475">
    <defs>
        <style>
            .prefix__cls-1{fill:#7aa5d3}
        </style>
    </defs>
    <g id="prefix__Groupe_190" data-name="Groupe 190">
        <g id="prefix__Groupe_189" data-name="Groupe 189">
            <path id="prefix__Tracé_149" d="M66.351 0H1.125A1.124 1.124 0 000 1.124v22.492h2.249V2.249h62.977V26.99h-39.36v2.249h40.485a1.124 1.124 0 001.125-1.124V1.125A1.124 1.124 0 0066.351 0z" class="prefix__cls-1" data-name="Tracé 149"/>
        </g>
    </g>
    <g id="prefix__Groupe_192" data-name="Groupe 192" transform="translate(36.316 6.31)">
        <g id="prefix__Groupe_191" data-name="Groupe 191">
            <path id="prefix__Rectangle_137" d="M0 0H23V2H0z" class="prefix__cls-1" data-name="Rectangle 137" transform="translate(.152 .165)"/>
        </g>
    </g>
    <g id="prefix__Groupe_194" data-name="Groupe 194" transform="translate(40.932 12.08)">
        <g id="prefix__Groupe_193" data-name="Groupe 193">
            <path id="prefix__Rectangle_138" d="M0 0H22V2H0z" class="prefix__cls-1" data-name="Rectangle 138" transform="translate(-.464 .395)"/>
        </g>
    </g>
    <g id="prefix__Groupe_196" data-name="Groupe 196" transform="translate(36.316 19.005)">
        <g id="prefix__Groupe_195" data-name="Groupe 195">
            <path id="prefix__Rectangle_139" d="M0 0H23V1H0z" class="prefix__cls-1" data-name="Rectangle 139" transform="translate(.152 .471)"/>
        </g>
    </g>
    <g id="prefix__Groupe_198" data-name="Groupe 198" transform="translate(0 4.498)">
        <g id="prefix__Groupe_197" data-name="Groupe 197">
            <path id="prefix__Tracé_150" d="M35.9 37.2a3.629 3.629 0 00-4.745-1.957l-.094.041-9.119 4.73a5.561 5.561 0 00.552-2.389A5.623 5.623 0 1012.4 41h-.047a7.717 7.717 0 00-7.169 4.993l-3 10.347a3.6 3.6 0 106.764 2.478l1.176-3.743v16.273a5.606 5.606 0 00-7.3 8.485A5.181 5.181 0 000 84.428v9.424a1.124 1.124 0 001.124 1.125H12.37a1.124 1.124 0 001.13-1.124v-9.425a5.169 5.169 0 00-2.007-4.071H20a5.168 5.168 0 00-2.007 4.071v9.424a1.124 1.124 0 001.124 1.125h11.247a1.124 1.124 0 001.125-1.124v-9.425a5.181 5.181 0 00-2.824-4.6 5.618 5.618 0 00-5.048-9.525V47.3l10.324-5.36A3.629 3.629 0 0035.9 37.2zm-19.031-2.951a3.374 3.374 0 11-3.369 3.374 3.374 3.374 0 013.369-3.374zM6.748 72.443a3.374 3.374 0 11-3.374 3.374 3.374 3.374 0 013.374-3.374zm4.5 20.284h-9v-8.3A2.951 2.951 0 015.2 81.482h3.1a2.951 2.951 0 012.947 2.947zm17.993-8.3v8.3h-9v-8.3a2.951 2.951 0 012.947-2.947h3.1a2.951 2.951 0 012.951 2.948zm-4.5-11.985a3.374 3.374 0 11-3.374 3.374 3.377 3.377 0 013.374-3.373zm9.1-33.37a1.446 1.446 0 01-.849.832l-11.018 5.717a1.125 1.125 0 00-.607 1v24.727a5.547 5.547 0 00-1.75 6.76h-1.624V58.99h-2.249v19.118h-3.873a5.571 5.571 0 00.5-2.249V47.744a1.125 1.125 0 00-2.2-.337L6.815 58.093a1.352 1.352 0 01-1.876.748 1.38 1.38 0 01-.628-1.786l3-10.347a5.433 5.433 0 015.039-3.462h7.963a1.12 1.12 0 00.518-.126l11.177-5.8a1.384 1.384 0 011.77.656 1.368 1.368 0 01.061 1.098z" class="prefix__cls-1" data-name="Tracé 150" transform="translate(0 -32)"/>
        </g>
    </g>
    <g id="prefix__Groupe_200" data-name="Groupe 200" transform="translate(35.987 42.681)">
        <g id="prefix__Groupe_199" data-name="Groupe 199">
            <path id="prefix__Tracé_151" d="M266.671 313.269a5.623 5.623 0 10-7.951-.1l.1.1a5.181 5.181 0 00-2.824 4.6v9.424a1.124 1.124 0 001.124 1.125h11.25a1.124 1.124 0 001.125-1.124v-9.424a5.181 5.181 0 00-2.824-4.601zm-3.924-7.389a3.374 3.374 0 11-3.374 3.374 3.374 3.374 0 013.375-3.374zm4.5 20.284h-9v-8.3a2.951 2.951 0 012.947-2.947h3.1a2.951 2.951 0 012.947 2.947z" class="prefix__cls-1" data-name="Tracé 151" transform="translate(-256 -303.618)"/>
        </g>
    </g>
    <g id="prefix__Groupe_202" data-name="Groupe 202" transform="translate(53.98 42.681)">
        <g id="prefix__Groupe_201" data-name="Groupe 201">
            <path id="prefix__Tracé_152" d="M394.671 313.269a5.623 5.623 0 10-7.951-.1l.1.1a5.181 5.181 0 00-2.824 4.6v9.424a1.124 1.124 0 001.124 1.125h11.246a1.124 1.124 0 001.125-1.124v-9.424a5.181 5.181 0 00-2.82-4.601zm-3.924-7.389a3.374 3.374 0 11-3.374 3.374 3.374 3.374 0 013.374-3.374zm4.5 20.284h-9v-8.3a2.951 2.951 0 012.947-2.947h3.1a2.951 2.951 0 012.947 2.947z" class="prefix__cls-1" data-name="Tracé 152" transform="translate(-384 -303.618)"/>
        </g>
    </g>
</svg>
